<svg id="visual" viewBox="0 0 900 600" width="900" height="600" xmlns="http://www.w3.org/2000/svg" xmlns:xlink="http://www.w3.org/1999/xlink" version="1.1"><rect x="0" y="0" width="900" height="600" fill="#001220"></rect><path d="M0 247L21.5 235.8C43 224.7 86 202.3 128.8 202.5C171.7 202.7 214.3 225.3 257.2 224C300 222.7 343 197.3 385.8 195C428.7 192.7 471.3 213.3 514.2 216.8C557 220.3 600 206.7 642.8 202.3C685.7 198 728.3 203 771.2 205C814 207 857 206 878.5 205.5L900 205L900 0L878.5 0C857 0 814 0 771.2 0C728.3 0 685.7 0 642.8 0C600 0 557 0 514.2 0C471.3 0 428.7 0 385.8 0C343 0 300 0 257.2 0C214.3 0 171.7 0 128.8 0C86 0 43 0 21.5 0L0 0Z" fill="#fa7268"></path><path d="M0 185L21.5 187.7C43 190.3 86 195.7 128.8 185.5C171.7 175.3 214.3 149.7 257.2 140.5C300 131.3 343 138.7 385.8 151.3C428.7 164 471.3 182 514.2 179.7C557 177.3 600 154.7 642.8 148C685.7 141.3 728.3 150.7 771.2 153C814 155.3 857 150.7 878.5 148.3L900 146L900 0L878.5 0C857 0 814 0 771.2 0C728.3 0 685.7 0 642.8 0C600 0 557 0 514.2 0C471.3 0 428.7 0 385.8 0C343 0 300 0 257.2 0C214.3 0 171.7 0 128.8 0C86 0 43 0 21.5 0L0 0Z" fill="#ef5f67"></path><path d="M0 107L21.5 107.8C43 108.7 86 110.3 128.8 116.3C171.7 122.3 214.3 132.7 257.2 134.7C300 136.7 343 130.3 385.8 130.2C428.7 130 471.3 136 514.2 134C557 132 600 122 642.8 114.8C685.7 107.7 728.3 103.3 771.2 104.5C814 105.7 857 112.3 878.5 115.7L900 119L900 0L878.5 0C857 0 814 0 771.2 0C728.3 0 685.7 0 642.8 0C600 0 557 0 514.2 0C471.3 0 428.7 0 385.8 0C343 0 300 0 257.2 0C214.3 0 171.7 0 128.8 0C86 0 43 0 21.5 0L0 0Z" fill="#e34c67"></path><path d="M0 91L21.5 85.5C43 80 86 69 128.8 67.8C171.7 66.7 214.3 75.3 257.2 75.7C300 76 343 68 385.8 65.7C428.7 63.3 471.3 66.7 514.2 67C557 67.3 600 64.7 642.8 68C685.7 71.3 728.3 80.7 771.2 89.2C814 97.7 857 105.3 878.5 109.2L900 113L900 0L878.5 0C857 0 814 0 771.2 0C728.3 0 685.7 0 642.8 0C600 0 557 0 514.2 0C471.3 0 428.7 0 385.8 0C343 0 300 0 257.2 0C214.3 0 171.7 0 128.8 0C86 0 43 0 21.5 0L0 0Z" fill="#d53867"></path><path d="M0 63L21.5 56.8C43 50.7 86 38.3 128.8 39.8C171.7 41.3 214.3 56.7 257.2 64.2C300 71.7 343 71.3 385.8 66.2C428.7 61 471.3 51 514.2 47C557 43 600 45 642.8 47.5C685.7 50 728.3 53 771.2 52.5C814 52 857 48 878.5 46L900 44L900 0L878.5 0C857 0 814 0 771.2 0C728.3 0 685.7 0 642.8 0C600 0 557 0 514.2 0C471.3 0 428.7 0 385.8 0C343 0 300 0 257.2 0C214.3 0 171.7 0 128.8 0C86 0 43 0 21.5 0L0 0Z" fill="#c62368"></path></svg>